<?xml version="1.0" encoding="UTF-8" standalone="no"?>
<svg
   id="Linux--Streamline-Carbon"
   viewBox="0 0 32 32"
   version="1.1"
   sodipodi:docname="Linux--Streamline-Carbon.svg"
   inkscape:version="1.4.3 (0d15f75042, 2025-12-25)"
   xmlns:inkscape="http://www.inkscape.org/namespaces/inkscape"
   xmlns:sodipodi="http://sodipodi.sourceforge.net/DTD/sodipodi-0.dtd"
   xmlns="http://www.w3.org/2000/svg"
   xmlns:svg="http://www.w3.org/2000/svg">
  <sodipodi:namedview
     id="namedview1"
     pagecolor="#505050"
     bordercolor="#ffffff"
     borderopacity="1"
     inkscape:showpageshadow="0"
     inkscape:pageopacity="0"
     inkscape:pagecheckerboard="1"
     inkscape:deskcolor="#d1d1d1"
     inkscape:zoom="14.71875"
     inkscape:cx="16.03397"
     inkscape:cy="16"
     inkscape:window-width="1128"
     inkscape:window-height="692"
     inkscape:window-x="0"
     inkscape:window-y="0"
     inkscape:window-maximized="1"
     inkscape:current-layer="Linux--Streamline-Carbon" />
  <desc
     id="desc1">
    Linux Streamline Icon: https://streamlinehq.com
  </desc>
  <defs
     id="defs1" />
  <path
     d="m29.8945 23.542 -1.7238 -3.4473a1.9994 1.9994 0 0 0 -1.7886 -1.1054h-0.4683a14.887 14.887 0 0 0 -1.8193 -4.5977C23.0647 12.4429 22 10.4277 22 8a6 6 0 0 0 -12 0 13.0041 13.0041 0 0 1 -2.0486 6.2153 14.7022 14.7022 0 0 0 -1.8708 4.7759h-0.4622a2.0007 2.0007 0 0 0 -1.7893 1.106l-1.7236 3.4467a1 1 0 0 0 0.0971 1.0508L6.2319 29.92a2.9995 2.9995 0 0 0 3.8482 0.6519l1.8735 -1.1241A13.8223 13.8223 0 0 0 16 30a13.8034 13.8034 0 0 0 4.0488 -0.5527L21.92 30.57a2.9819 2.9819 0 0 0 1.5385 0.43 3.0385 3.0385 0 0 0 2.3389 -1.1187l4 -5.2885a1.001 1.001 0 0 0 0.0971 -1.0508Zm-7.5683 -8.2158a14.8311 14.8311 0 0 1 1.5591 3.6631H21.738a16.6591 16.6591 0 0 0 -0.98 -2.6455 12.7083 12.7083 0 0 1 -0.8789 -2.4454 8.8046 8.8046 0 0 0 1.0034 -1.4277l0.0384 -0.0718a30.746 30.746 0 0 0 1.4053 2.9273ZM12 21a9.3959 9.3959 0 0 1 1.0728 -3.8516c0.2563 -0.5825 0.5158 -1.1757 0.726 -1.7993a4.0474 4.0474 0 0 0 4.4024 0c0.21 0.6236 0.47 1.2168 0.726 1.7993A9.3959 9.3959 0 0 1 20 21c0 1.2881 -0.4146 3 -4 3s-4 -1.7119 -4 -3Zm6.5105 -8.5752A3.6265 3.6265 0 0 1 16 14a3.6273 3.6273 0 0 1 -2.5107 -1.5757 7.6356 7.6356 0 0 1 5.0212 0ZM12 8a4 4 0 0 1 8 0 10.9164 10.9164 0 0 0 0.4673 3.1152A7.9811 7.9811 0 0 0 19 10.4849V8h-2v2.0542a9.2522 9.2522 0 0 0 -2 0V8h-2v2.4849a7.9019 7.9019 0 0 0 -1.4785 0.6372A10.7093 10.7093 0 0 0 12 8Zm-2.2854 7.1592a29.8007 29.8007 0 0 0 1.3547 -2.7792l0.0484 0.09a8.8046 8.8046 0 0 0 1.0034 1.4277 12.7083 12.7083 0 0 1 -0.8789 2.4454 16.6574 16.6574 0 0 0 -0.981 2.6474H8.1047a14.0567 14.0567 0 0 1 1.6099 -3.8313Zm1.3708 12.4775 -2.0346 1.2207a0.9866 0.9866 0 0 1 -1.2529 -0.1806l-3.6255 -4.7935 1.4458 -2.8921h3.706l2.1658 5.3941a1.0036 1.0036 0 0 1 -0.4046 1.2514Zm2.316 0.1177a2.9571 2.9571 0 0 0 -0.0562 -2.11A9.03 9.03 0 0 0 16 26a9.0237 9.0237 0 0 0 2.6562 -0.3564 2.9889 2.9889 0 0 0 -0.0546 2.11 13.8722 13.8722 0 0 1 -5.2 0Zm10.83 0.8833a0.996 0.996 0 0 1 -1.2827 0.2178l-2.0342 -1.2207a1.01 1.01 0 0 1 -0.396 -1.273l2.157 -5.3725h3.7058l1.4461 2.892Z"
     fill="#000000"
     stroke-width="1"
     id="path1"
     style="fill:#ffffff" />
  <path
     id="_Transparent_Rectangle_"
     d="M0 0h32v32H0Z"
     fill="none"
     stroke-width="1" />
</svg>
